<?xml version="1.0" encoding="UTF-8"?>
<svg data-bbox="62.062 62.064 529.572 529.565" viewBox="0 0 653.71 653.71" xmlns="http://www.w3.org/2000/svg" data-type="ugc">
    <g>
        <path d="M541.41 172.13c20.66 27.44 34.61 58.12 42.62 91.35 34.93 144.87-53.75 288.83-199.11 321.53-118.29 26.61-233.48-29.05-289.81-130.44C69.32 408.14 58.67 358.15 63 305.4c9.73-118.64 95.29-210.65 202.42-236.26 26.57-6.35 53.47-8.02 80.65-6.61 2.54.13 5.09.2 7.46 1.29-1.17 14.27-3.3 28.4-6.51 42.34-4.72 20.53-10.76 40.64-20.24 59.57-56.98.68-101.52 25.07-133.75 71.58-18.45 26.62-27.65 56.52-26.98 89.16-1.24 10.5.04 20.92 2.26 31.07 12 55 43.65 94.41 94.99 117.6 12.55 5.67 25.64 10.28 39.74 10.62 1.91.46 3.8 1.16 5.73 1.34 27.36 2.47 54.12-.11 79.43-11.29 57.21-25.27 90.33-69.2 98.94-131.07 1.93-13.84 2.19-28.1-1.24-42.01 1.72-3.22 3.36-6.48 5.17-9.65 17.14-30.12 30.91-61.73 41.92-94.57 2.94-8.76 4.68-17.9 8.42-26.4Z" fill="none" stroke="#eff7f9" stroke-miterlimit="10" stroke-width="3.78"/>
        <path d="M541.41 172.13c-3.74 8.5-5.48 17.64-8.42 26.4-11.01 32.84-24.78 64.45-41.92 94.57-1.8 3.17-3.45 6.43-5.17 9.65-1.6 2.29-3.32 4.51-4.79 6.89-38.59 62.18-87.88 114.2-148.01 155.92-9.92 6.88-20.04 13.48-30.06 20.22-14.1-.34-27.18-4.95-39.74-10.62-51.33-23.19-82.99-62.6-94.99-117.6-2.22-10.16-3.49-20.57-2.26-31.07 1.84-.7 3.74-1.26 5.5-2.1 48.56-23.16 88.99-56.28 121.02-99.49 13.63-18.38 25.64-37.79 34.21-59.14 9.48-18.93 15.51-39.04 20.24-59.57 3.21-13.94 5.34-28.07 6.51-42.34 16.51.13 32.37 4.07 48.02 8.74 55.83 16.64 101.25 48.45 136.7 94.6 1.19 1.55 2.11 3.31 3.16 4.97Z" fill="#eff7f9"/>
    </g>
</svg>
